<svg width="74" height="74" viewBox="0 0 74 74" fill="none" xmlns="http://www.w3.org/2000/svg">
<path d="M68.3999 1.59922L39.0999 30.8992C37.8999 32.0992 35.9999 32.0992 34.8999 30.8992L5.5999 1.59922C4.3999 0.399219 2.4999 0.399219 1.3999 1.59922C0.199902 2.79922 0.199902 4.69922 1.3999 5.79922L30.6999 35.0992C31.8999 36.2992 31.8999 38.1992 30.6999 39.2992L1.2999 68.6992C0.0999023 69.8992 0.0999023 71.7992 1.2999 72.8992C2.4999 74.0992 4.3999 74.0992 5.4999 72.8992L34.7999 43.5992C35.9999 42.3992 37.8999 42.3992 38.9999 43.5992L68.3999 72.9992C69.5999 74.1992 71.4999 74.1992 72.5999 72.9992C73.7999 71.7992 73.7999 69.8992 72.5999 68.7992L43.3999 39.3992C42.1999 38.1992 42.1999 36.2992 43.3999 35.1992L72.6999 5.89922C73.8999 4.69922 73.8999 2.79922 72.6999 1.69922C71.4999 0.499218 69.5999 0.499219 68.3999 1.59922Z" fill="black"/>
</svg>
