<svg width="12" height="14" viewBox="0 0 12 14" fill="none" xmlns="http://www.w3.org/2000/svg">
<path d="M11.2479 13.777H0.423681C0.189526 13.777 0 13.5875 0 13.3534C0 13.1192 0.189526 12.9297 0.423681 12.9297H11.2476C11.4817 12.9297 11.6713 13.1192 11.6713 13.3534C11.6713 13.5875 11.4817 13.777 11.2479 13.777Z" fill="#EDEDED"/>
<path d="M5.83579 10.9038C5.60164 10.9038 5.41211 10.7143 5.41211 10.4802V0.423681C5.41211 0.189526 5.60164 0 5.83579 0C6.06994 0 6.25947 0.189526 6.25947 0.423681V10.4802C6.25947 10.714 6.06966 10.9038 5.83579 10.9038Z" fill="#EDEDED"/>
<path d="M5.83554 11.118C5.73782 11.118 5.64009 11.0843 5.56043 11.0166L1.07648 7.18535C0.898536 7.03339 0.877352 6.76591 1.02931 6.58796C1.18155 6.41002 1.44904 6.38912 1.6267 6.54079L5.8138 10.1181L9.38825 6.56282C9.55377 6.39787 9.82238 6.39844 9.98733 6.56452C10.1523 6.73032 10.1517 6.99865 9.98564 7.1636L6.13438 10.9945C6.05219 11.0764 5.94401 11.118 5.83554 11.118Z" fill="#EDEDED"/>
</svg>
