<svg width="21" height="21" viewBox="0 0 21 21" fill="none" xmlns="http://www.w3.org/2000/svg">
<path fill-rule="evenodd" clip-rule="evenodd" d="M18.4145 19.1958L12.1534 19.1965C11.8451 19.1957 11.5952 19.4457 11.596 19.754C11.596 20.0614 11.8451 20.3106 12.1534 20.3114H19.7539C19.9021 20.3114 20.0432 20.2522 20.1481 20.1474C20.2521 20.0433 20.3113 19.9022 20.3113 19.754V12.1535C20.3113 11.999 20.2482 11.8602 20.1473 11.7593C20.0464 11.6584 19.9076 11.5953 19.7539 11.5961C19.4456 11.5953 19.1957 11.8452 19.1964 12.1535V18.4011L12.8633 12.068C12.754 11.9587 12.6113 11.9052 12.4686 11.9052C12.3258 11.9052 12.1831 11.9587 12.075 12.068C11.8564 12.2854 11.8564 12.6389 12.075 12.8563L18.4145 19.1958ZM1.89669 1.11554L8.15779 1.11484C8.46606 1.11563 8.716 0.865695 8.71521 0.557419C8.71521 0.249932 8.46606 0.000788444 8.15779 0H0.557337C0.409111 0 0.267982 0.0591324 0.16312 0.163993C0.0590477 0.268066 -8.39233e-05 0.409195 -8.39233e-05 0.557419V8.15787C-8.39233e-05 8.31241 0.0629921 8.45117 0.16391 8.55209C0.26483 8.65301 0.403593 8.71608 0.557337 8.71529C0.865612 8.71608 1.11554 8.46615 1.11475 8.15787V1.91023L7.44792 8.24339C7.55719 8.35266 7.69991 8.40618 7.84263 8.40618C7.98535 8.40618 8.12807 8.35266 8.23623 8.24339C8.45477 8.02597 8.45477 7.67251 8.23623 7.45508L1.89669 1.11554Z" fill="white"/>
</svg>
